# xmcd
#
# Track frame offsets: 
#        160
#        12660
#        26097
#        37227
#        50125
#        61335
#        72862
#        84165
#        94132
#        104815
#        116310
#        130270
#        144777
#        158722
#        173557
#        183047
#        194025
#        206842
#        219372
#        230617
#        244402
#
# Disc length: 3446 seconds
#
# Revision: 0
# Processed by: cddbd v1.4PL0 Copyright (c) Steve Scherf et al.
# Submitted via: ExactAudioCopy v0.90b2
#
DISCID=320d7415
DTITLE=Bo Diddley - The chess Masters
DYEAR=1900
DGENRE=
TTITLE0=Bod Diddley
TTITLE1=I'm a man
TTITLE2=Diddley Daddy
TTITLE3=Pretty thing
TTITLE4=Bring it to Jerome
TTITLE5=Diddy wah diddy
TTITLE6=Who do you love
TTITLE7=Hey Bo Diddley
TTITLE8=Mona
TTITLE9=Say boss man
TTITLE10=Before you accuse me
TTITLE11=Say man
TTITLE12=Hush your mouth
TTITLE13=Dearest darling
TTITLE14=Crackin' up
TTITLE15=I'm sorry
TTITLE16=Mumblin' guitar
TTITLE17=Road runner
TTITLE18=sixteen tons
TTITLE19=Ride on Josephine
TTITLE20=You can't judge a book
EXTD=
EXTT0=
EXTT1=
EXTT2=
EXTT3=
EXTT4=
EXTT5=
EXTT6=
EXTT7=
EXTT8=
EXTT9=
EXTT10=
EXTT11=
EXTT12=
EXTT13=
EXTT14=
EXTT15=
EXTT16=
EXTT17=
EXTT18=
EXTT19=
EXTT20=
PLAYORDER=
